<?xml version="1.0" standalone="no"?>
<!DOCTYPE svg PUBLIC "-//W3C//DTD SVG 20010904//EN"
 "http://www.w3.org/TR/2001/REC-SVG-20010904/DTD/svg10.dtd">
<svg version="1.0" xmlns="http://www.w3.org/2000/svg"
 width="16.000000pt" height="16.000000pt" viewBox="0 0 186.000000 186.000000"
 preserveAspectRatio="xMidYMid meet">
<metadata>
Created by potrace 1.12, written by Peter Selinger 2001-2015
</metadata>
<g transform="translate(-6.000000,193.940652) scale(0.100000,-0.100000)"
fill="#000000" stroke="none">
<path d="M368 1924 c-63 -34 -106 -155 -115 -324 -6 -108 -8 -117 -39 -160
-59 -84 -154 -299 -154 -351 0 -4 25 -37 56 -71 126 -141 334 -422 541 -730
119 -177 123 -180 259 -199 80 -11 186 -1 259 24 33 11 50 28 94 93 266 390
455 647 580 791 39 45 71 91 71 102 0 54 -76 225 -146 332 -44 66 -44 67 -44
157 0 151 -38 273 -101 327 -52 43 -103 31 -231 -56 l-57 -39 -348 0 -348 0
-60 41 c-121 81 -162 93 -217 63z m126 -101 c105 -62 125 -80 119 -105 -22
-100 -40 -115 -103 -93 -68 24 -89 20 -135 -28 l-42 -44 5 81 c6 114 48 226
85 226 5 0 37 -16 71 -37z m1116 -25 c23 -50 31 -83 36 -158 l6 -95 -25 36
c-38 54 -74 65 -144 46 -52 -15 -58 -15 -75 -1 -21 20 -41 76 -36 105 2 14 32
38 92 75 49 30 96 54 103 54 8 0 27 -28 43 -62z m-404 -67 c-14 -23 -57 -219
-72 -331 -23 -171 -23 -491 -1 -616 28 -153 87 -291 147 -349 l29 -27 -57 -86
-57 -85 -5 39 c-4 33 -11 42 -40 56 -94 44 -213 44 -315 -1 -42 -19 -45 -23
-45 -58 l0 -38 -55 82 c-30 46 -55 85 -55 89 0 4 16 25 36 47 110 121 162 366
151 702 -8 219 -32 383 -83 563 l-6 22 216 0 c120 0 215 -4 212 -9z m-776
-453 c31 -48 72 -121 91 -162 l34 -75 41 6 c35 5 44 2 58 -18 9 -13 16 -31 16
-40 0 -16 -37 -53 -61 -61 -5 -2 2 -47 17 -103 20 -76 27 -127 28 -210 2 -174
-1 -174 -134 12 -136 190 -223 303 -309 402 l-64 73 13 42 c17 58 75 181 112
239 l31 48 34 -33 c19 -18 61 -72 93 -120z m1321 39 c17 -32 43 -93 59 -135
l28 -76 -81 -95 c-83 -99 -277 -356 -357 -474 -25 -37 -48 -67 -52 -67 -12 0
-22 65 -20 145 1 77 17 172 45 265 l13 45 -31 15 c-37 18 -48 76 -19 97 21 15
70 17 79 3 3 -5 30 39 60 99 53 104 119 205 174 264 l26 28 22 -28 c13 -15 37
-54 54 -86z m-664 -1048 c19 -7 23 -16 23 -48 0 -22 -4 -43 -10 -46 -13 -8
-183 -8 -209 0 -17 5 -21 15 -21 45 0 21 4 42 10 45 37 23 151 25 207 4z"/>
</g>
</svg>
